<?xml version="1.0" standalone="no"?>
<!DOCTYPE svg PUBLIC "-//W3C//DTD SVG 20010904//EN"
 "http://www.w3.org/TR/2001/REC-SVG-20010904/DTD/svg10.dtd">
<svg version="1.0" xmlns="http://www.w3.org/2000/svg"
 width="50.000000pt" height="50.000000pt" viewBox="0 0 50.000000 50.000000"
 preserveAspectRatio="xMidYMid meet">

<g transform="translate(0.000000,50.000000) scale(0.100000,-0.100000)"
fill="#000000" stroke="none">
<path d="M122 453 c2 -27 8 -48 13 -48 6 0 11 21 13 48 3 38 0 47 -13 47 -13
0 -16 -9 -13 -47z"/>
<path d="M352 453 c2 -27 8 -48 13 -48 6 0 11 21 13 48 3 38 0 47 -13 47 -13
0 -16 -9 -13 -47z"/>
<path d="M17 442 c-15 -16 -17 -46 -17 -214 0 -176 2 -196 18 -211 27 -24 426
-25 460 -1 21 15 22 20 22 213 0 221 -3 231 -68 231 -29 0 -32 -3 -32 -30 0
-34 -25 -53 -52 -39 -11 6 -18 21 -18 39 l0 30 -80 0 -80 0 0 -30 c0 -18 -7
-33 -18 -39 -27 -14 -52 5 -52 39 0 27 -3 30 -33 30 -20 0 -41 -8 -50 -18z
m443 -257 l0 -145 -210 0 -210 0 0 145 0 145 210 0 210 0 0 -145z"/>
<path d="M170 190 c0 -56 3 -70 15 -70 9 0 15 9 15 25 0 20 5 25 25 25 16 0
25 6 25 15 0 9 -9 15 -25 15 -16 0 -25 6 -25 15 0 9 9 15 25 15 16 0 25 6 25
15 0 11 -11 15 -40 15 l-40 0 0 -70z"/>
<path d="M270 169 c0 -37 4 -49 15 -49 10 0 15 10 15 30 0 18 6 33 15 36 26
10 16 31 -15 32 -29 1 -30 0 -30 -49z"/>
</g>
</svg>
