<?xml version="1.0" standalone="no"?>
<!DOCTYPE svg PUBLIC "-//W3C//DTD SVG 20010904//EN"
 "http://www.w3.org/TR/2001/REC-SVG-20010904/DTD/svg10.dtd">
<svg version="1.0" xmlns="http://www.w3.org/2000/svg"
 width="50.000000pt" height="50.000000pt" viewBox="0 0 50.000000 50.000000"
 preserveAspectRatio="xMidYMid meet">

<g transform="translate(0.000000,50.000000) scale(0.100000,-0.100000)"
fill="#000000" stroke="none">
<path d="M122 453 c2 -27 8 -48 13 -48 6 0 11 21 13 48 3 38 0 47 -13 47 -13
0 -16 -9 -13 -47z"/>
<path d="M352 453 c2 -27 8 -48 13 -48 6 0 11 21 13 48 3 38 0 47 -13 47 -13
0 -16 -9 -13 -47z"/>
<path d="M17 442 c-15 -16 -17 -46 -17 -214 0 -176 2 -196 18 -211 27 -24 426
-25 460 -1 21 15 22 20 22 213 0 221 -3 231 -68 231 -29 0 -32 -3 -32 -30 0
-34 -25 -53 -52 -39 -11 6 -18 21 -18 39 l0 30 -80 0 -80 0 0 -30 c0 -18 -7
-33 -18 -39 -27 -14 -52 5 -52 39 0 27 -3 30 -33 30 -20 0 -41 -8 -50 -18z
m443 -257 l0 -145 -210 0 -210 0 0 145 0 145 210 0 210 0 0 -145z"/>
<path d="M118 190 c-2 -59 0 -70 12 -68 10 2 16 18 19 48 l4 45 11 -45 c7 -26
18 -45 26 -45 7 0 20 20 29 45 l16 45 3 -47 c2 -35 7 -48 18 -48 12 0 14 13
12 68 -3 60 -5 67 -25 70 -19 3 -24 -4 -36 -45 l-15 -48 -12 48 c-10 39 -16
47 -35 47 -22 0 -24 -5 -27 -70z"/>
<path d="M298 195 c-18 -41 3 -75 47 -75 28 0 38 5 47 25 18 41 -3 75 -47 75
-28 0 -38 -5 -47 -25z m62 -25 c0 -19 -5 -30 -14 -30 -17 0 -28 24 -20 45 11
27 34 17 34 -15z"/>
</g>
</svg>
