<?xml version="1.0" standalone="no"?>
<!DOCTYPE svg PUBLIC "-//W3C//DTD SVG 20010904//EN"
 "http://www.w3.org/TR/2001/REC-SVG-20010904/DTD/svg10.dtd">
<svg version="1.0" xmlns="http://www.w3.org/2000/svg"
 width="50.000000pt" height="50.000000pt" viewBox="0 0 50.000000 50.000000"
 preserveAspectRatio="xMidYMid meet">

<g transform="translate(0.000000,50.000000) scale(0.100000,-0.100000)"
fill="#000000" stroke="none">
<path d="M122 453 c2 -27 8 -48 13 -48 6 0 11 21 13 48 3 38 0 47 -13 47 -13
0 -16 -9 -13 -47z"/>
<path d="M352 453 c2 -27 8 -48 13 -48 6 0 11 21 13 48 3 38 0 47 -13 47 -13
0 -16 -9 -13 -47z"/>
<path d="M17 442 c-15 -16 -17 -46 -17 -214 0 -176 2 -196 18 -211 27 -24 426
-25 460 -1 21 15 22 20 22 213 0 221 -3 231 -68 231 -29 0 -32 -3 -32 -30 0
-34 -25 -53 -52 -39 -11 6 -18 21 -18 39 l0 30 -80 0 -80 0 0 -30 c0 -18 -7
-33 -18 -39 -27 -14 -52 5 -52 39 0 27 -3 30 -33 30 -20 0 -41 -8 -50 -18z
m443 -257 l0 -145 -210 0 -210 0 0 145 0 145 210 0 210 0 0 -145z"/>
<path d="M160 241 c-13 -26 -5 -46 26 -59 34 -16 32 -44 -3 -40 -15 2 -28 -2
-30 -9 -7 -19 71 -17 87 2 17 20 -1 61 -30 70 -27 9 -20 31 9 28 13 -2 21 3
21 12 0 24 -67 20 -80 -4z"/>
<path d="M275 211 c-3 -5 7 -11 22 -13 l28 -4 -26 -11 c-55 -24 -45 -63 17
-63 42 0 44 1 44 31 0 46 -16 69 -50 69 -16 0 -31 -4 -35 -9z m46 -64 c-13
-13 -26 -3 -16 12 3 6 11 8 17 5 6 -4 6 -10 -1 -17z"/>
</g>
</svg>
