<?xml version="1.0" standalone="no"?>
<!DOCTYPE svg PUBLIC "-//W3C//DTD SVG 20010904//EN"
 "http://www.w3.org/TR/2001/REC-SVG-20010904/DTD/svg10.dtd">
<svg version="1.0" xmlns="http://www.w3.org/2000/svg"
 width="50.000000pt" height="50.000000pt" viewBox="0 0 50.000000 50.000000"
 preserveAspectRatio="xMidYMid meet">

<g transform="translate(0.000000,50.000000) scale(0.100000,-0.100000)"
fill="#000000" stroke="none">
<path d="M122 453 c2 -27 8 -48 13 -48 6 0 11 21 13 48 3 38 0 47 -13 47 -13
0 -16 -9 -13 -47z"/>
<path d="M352 453 c2 -27 8 -48 13 -48 6 0 11 21 13 48 3 38 0 47 -13 47 -13
0 -16 -9 -13 -47z"/>
<path d="M17 442 c-15 -16 -17 -46 -17 -214 0 -176 2 -196 18 -211 27 -24 426
-25 460 -1 21 15 22 20 22 213 0 221 -3 231 -68 231 -29 0 -32 -3 -32 -30 0
-34 -25 -53 -52 -39 -11 6 -18 21 -18 39 l0 30 -80 0 -80 0 0 -30 c0 -18 -7
-33 -18 -39 -27 -14 -52 5 -52 39 0 27 -3 30 -33 30 -20 0 -41 -8 -50 -18z
m443 -257 l0 -145 -210 0 -210 0 0 145 0 145 210 0 210 0 0 -145z"/>
<path d="M150 241 c-13 -26 -6 -43 31 -63 35 -20 30 -41 -9 -36 -14 2 -27 -3
-29 -9 -6 -17 69 -17 85 -1 21 21 13 48 -18 66 -33 19 -34 38 -1 35 13 -2 21
3 21 12 0 24 -67 20 -80 -4z"/>
<path d="M262 173 l3 -48 48 -2 47 -2 0 50 c0 37 -4 49 -15 49 -10 0 -15 -10
-15 -27 0 -16 -4 -34 -9 -42 -14 -22 -31 -3 -31 35 0 24 -4 34 -16 34 -12 0
-14 -10 -12 -47z"/>
</g>
</svg>
