<?xml version="1.0" standalone="no"?>
<!DOCTYPE svg PUBLIC "-//W3C//DTD SVG 20010904//EN"
 "http://www.w3.org/TR/2001/REC-SVG-20010904/DTD/svg10.dtd">
<svg version="1.0" xmlns="http://www.w3.org/2000/svg"
 width="50.000000pt" height="50.000000pt" viewBox="0 0 50.000000 50.000000"
 preserveAspectRatio="xMidYMid meet">

<g transform="translate(0.000000,50.000000) scale(0.100000,-0.100000)"
fill="#000000" stroke="none">
<path d="M122 453 c2 -27 8 -48 13 -48 6 0 11 21 13 48 3 38 0 47 -13 47 -13
0 -16 -9 -13 -47z"/>
<path d="M352 453 c2 -27 8 -48 13 -48 6 0 11 21 13 48 3 38 0 47 -13 47 -13
0 -16 -9 -13 -47z"/>
<path d="M17 442 c-15 -16 -17 -46 -17 -214 0 -176 2 -196 18 -211 27 -24 426
-25 460 -1 21 15 22 20 22 213 0 221 -3 231 -68 231 -29 0 -32 -3 -32 -30 0
-34 -25 -53 -52 -39 -11 6 -18 21 -18 39 l0 30 -80 0 -80 0 0 -30 c0 -18 -7
-33 -18 -39 -27 -14 -52 5 -52 39 0 27 -3 30 -33 30 -20 0 -41 -8 -50 -18z
m443 -257 l0 -145 -210 0 -210 0 0 145 0 145 210 0 210 0 0 -145z"/>
<path d="M267 264 c-4 -4 -7 -38 -7 -76 0 -61 2 -68 20 -68 16 0 20 7 20 35 0
24 5 35 15 35 10 0 15 -11 15 -35 0 -24 5 -35 15 -35 11 0 15 11 15 38 0 47
-12 66 -38 60 -17 -5 -22 -1 -24 20 -3 26 -18 38 -31 26z"/>
<path d="M140 245 c0 -8 9 -15 20 -15 18 0 20 -7 20 -55 0 -42 3 -55 15 -55
12 0 15 13 15 55 0 48 2 55 20 55 11 0 20 7 20 15 0 12 -13 15 -55 15 -42 0
-55 -3 -55 -15z"/>
</g>
</svg>
