<?xml version="1.0" standalone="no"?>
<!DOCTYPE svg PUBLIC "-//W3C//DTD SVG 20010904//EN"
 "http://www.w3.org/TR/2001/REC-SVG-20010904/DTD/svg10.dtd">
<svg version="1.0" xmlns="http://www.w3.org/2000/svg"
 width="50.000000pt" height="50.000000pt" viewBox="0 0 50.000000 50.000000"
 preserveAspectRatio="xMidYMid meet">

<g transform="translate(0.000000,50.000000) scale(0.100000,-0.100000)"
fill="#000000" stroke="none">
<path d="M122 453 c2 -27 8 -48 13 -48 6 0 11 21 13 48 3 38 0 47 -13 47 -13
0 -16 -9 -13 -47z"/>
<path d="M352 453 c2 -27 8 -48 13 -48 6 0 11 21 13 48 3 38 0 47 -13 47 -13
0 -16 -9 -13 -47z"/>
<path d="M17 442 c-15 -16 -17 -46 -17 -214 0 -176 2 -196 18 -211 27 -24 426
-25 460 -1 21 15 22 20 22 213 0 221 -3 231 -68 231 -29 0 -32 -3 -32 -30 0
-34 -25 -53 -52 -39 -11 6 -18 21 -18 39 l0 30 -80 0 -80 0 0 -30 c0 -18 -7
-33 -18 -39 -27 -14 -52 5 -52 39 0 27 -3 30 -33 30 -20 0 -41 -8 -50 -18z
m443 -257 l0 -145 -210 0 -210 0 0 145 0 145 210 0 210 0 0 -145z"/>
<path d="M129 193 c14 -54 21 -68 36 -68 14 0 22 12 30 45 l11 45 8 -47 c6
-38 11 -48 26 -48 19 0 29 24 46 108 5 25 3 32 -9 32 -10 0 -18 -16 -24 -47
l-10 -48 -9 45 c-12 54 -40 67 -49 23 -14 -65 -22 -70 -29 -20 -6 36 -11 47
-26 47 -17 0 -17 -3 -1 -67z"/>
<path d="M312 208 c-15 -15 -16 -60 0 -76 14 -14 78 -16 78 -2 0 6 -11 10 -24
10 -14 0 -28 5 -31 10 -4 6 7 10 25 10 28 0 31 3 28 28 -2 22 -9 28 -33 30
-17 2 -36 -3 -43 -10z m48 -18 c0 -5 -7 -10 -15 -10 -8 0 -15 5 -15 10 0 6 7
10 15 10 8 0 15 -4 15 -10z"/>
</g>
</svg>
